<svg xmlns="http://www.w3.org/2000/svg" xmlns:xlink="http://www.w3.org/1999/xlink" id="Layer_1" x="0" y="0" enable-background="new 0 0 228.8 78.2" version="1.1" viewBox="0 0 228.8 78.2" xml:space="preserve"><defs/><style>.st0{fill:#47A1DA;} .st1{fill:#333333;} .st2{fill:#FFFFFF;} .st3{fill:none;stroke:#00B381;stroke-miterlimit:10;} .st4{fill:#00B381;} .st5{fill:#DA1C5C;} .st6{fill:#003251;} .st7{fill:#A1A5B9;}</style><g><path d="M126.1,58.5c0.2,4.4,2.4,6.5,6.5,6.5c1.8,0,3.3-0.3,4.4-1c1.1-0.7,1.8-1.5,2-2.7c0.2-1.2-0.3-2.2-1.5-3 c-1.2-0.8-2.7-1.6-4.6-2.4c-1.9-0.8-4-1.6-6.1-2.5c-2.1-0.9-4.1-2-5.9-3.3c-1.8-1.3-3.3-3-4.2-4.9c-1-2-1.3-4.4-0.8-7.2 c0.5-3.3,1.9-6.3,4.1-8.9c2.2-2.6,5.1-4.6,8.5-6.1c3.4-1.5,7.1-2.2,11.1-2.2c6.2,0,11,1.5,14.4,4.5c3.4,3,5.3,7.2,5.5,12.7 c0,1.6-0.8,2.6-2.6,2.9l-10.1,1.8c-1.6,0.3-2.5-0.4-2.6-2.2c-0.2-4.4-2.4-6.5-6.5-6.5c-1.4,0-2.6,0.4-3.7,1.2 c-1.1,0.8-1.7,1.8-1.9,3c-0.2,1.2,0.3,2.2,1.5,3c1.2,0.8,2.7,1.6,4.6,2.4c1.9,0.8,4,1.6,6.1,2.5c2.1,0.9,4.1,2,5.9,3.3 c1.8,1.3,3.3,2.9,4.3,4.9c1,1.9,1.3,4.4,0.8,7.3c-0.8,5.3-3.4,9.4-7.7,12.3c-4.3,2.9-10,4.4-16.9,4.4c-6.1,0-10.9-1.5-14.3-4.5 c-3.5-3-5.3-7.2-5.5-12.7c0-1.6,0.8-2.6,2.6-2.9l10.1-1.8C125.1,56.1,126,56.8,126.1,58.5z M54,12.3c-1.7-3.3-4.2-5.8-7.6-7.7 C43,2.6,39,1.7,34.4,1.7H13.6c-1.7,0-2.7,0.9-3,2.6L4.4,45.4h17.3l4.6-30.6h6.1c2,0,3.6,0.8,4.7,2.5c1.1,1.7,1.5,3.7,1.1,6.2 l-4.7,31.2c-0.4,2.5-1.4,4.6-3,6.2c-1.6,1.7-3.5,2.5-5.5,2.5h-6.1l1.4-9.5H3.1l-3,20c-0.3,1.7,0.5,2.6,2.2,2.6H23 c4.6,0,8.9-0.9,12.8-2.8c3.9-1.9,7.2-4.4,9.8-7.7c2.6-3.3,4.3-7,5-11.1l4.8-31.5C56.1,19.2,55.6,15.5,54,12.3z M109.7,22.5H97.7 c-1.7,0-2.7,0.9-3,2.6l-0.2,1.1c-2.4-3.6-6.3-5.4-11.6-5.4c-6.4,0-11.6,1.9-15.8,5.8c-4.2,3.8-6.7,9.2-7.8,16.1l-0.4,2.7h17.3 l0.4-2.7c0.4-2.8,1.5-4.9,3.2-6.4c1.7-1.5,3.8-2.3,6.4-2.3c2,0,3.5,0.6,4.6,1.9c1.1,1.2,1.5,3,1.4,5.3l0,0.4l-2.4,15.9 c-0.1,0.1-0.2,0.3-0.2,0.5c-0.6,2.3-1.5,4.1-3,5.3c-1.4,1.2-3.2,1.9-5.2,1.9c-2.6,0-4.5-0.8-5.7-2.3c-1.2-1.5-1.6-3.7-1.2-6.4 l0.4-2.5H57.7l-0.4,2.5c-1,6.9-0.1,12.2,2.9,16.1c3,3.8,7.7,5.8,14,5.8c5.3,0,9.7-1.8,13.2-5.4l-0.2,1.1c-0.3,1.7,0.5,2.6,2.2,2.6 h12.1c1.7,0,2.7-0.9,3-2.6l7.4-48.9C112.2,23.3,111.4,22.5,109.7,22.5z M211.9,26.6c-3-3.8-7.7-5.8-14-5.8c-5.3,0-9.7,1.8-13.2,5.4 l3.6-23.6c0.3-1.7-0.5-2.6-2.2-2.6H174c-1.7,0-2.7,0.9-3,2.6l-6.5,42.8h17.3l0.6-3.8c0.1-0.1,0.2-0.3,0.2-0.5 c0.6-2.3,1.5-4.1,3-5.3c1.4-1.2,3.2-1.9,5.2-1.9c2.6,0,4.5,0.8,5.7,2.3c1.2,1.5,1.6,3.7,1.2,6.4l-4.7,31.3 c-0.3,1.7,0.5,2.6,2.2,2.6h12.1c1.7,0,2.7-0.9,3-2.6l4.8-31.4C215.9,35.7,214.9,30.4,211.9,26.6z M163.3,53.9l-3,20 c-0.3,1.7,0.5,2.6,2.2,2.6h12.1c1.7,0,2.7-0.9,3-2.6l3-20H163.3z" class="st4"/><g><path d="M221.3,76.5L221.3,76.5c-4.2,0-7.6-3.4-7.6-7.6v0c0-4.2,3.4-7.6,7.6-7.6h0c4.2,0,7.6,3.4,7.6,7.6v0 C228.8,73.1,225.4,76.5,221.3,76.5z" class="st7"/></g></g></svg>